<?xml version="1.0" encoding="iso-8859-1"?>
<!-- Generator: Adobe Illustrator 17.1.0, SVG Export Plug-In . SVG Version: 6.00 Build 0)  -->
<!DOCTYPE svg PUBLIC "-//W3C//DTD SVG 1.1//EN" "http://www.w3.org/Graphics/SVG/1.1/DTD/svg11.dtd">
<svg xmlns="http://www.w3.org/2000/svg" xmlns:xlink="http://www.w3.org/1999/xlink" version="1.1" id="Capa_1" x="0px" y="0px" viewBox="0 0 208.013 208.013" style="enable-background:new 0 0 208.013 208.013;" xml:space="preserve" width="512px" height="512px">
<path d="M206.205,1.464c-1.951-1.952-5.119-1.952-7.07,0l-29.959,29.959l-3.525-3.523c-4.045-4.043-9.422-6.27-15.142-6.27  c-5.723,0-11.103,2.229-15.147,6.276l-99.244,99.283l-5.981-5.979c-1.467-1.466-3.416-2.273-5.49-2.273  c-2.075,0-4.025,0.809-5.483,2.268l-0.133,0.132c-3.025,3.029-3.024,7.955,0.003,10.98l11.564,11.559l-16.345,16.352l-0.446-0.446  c-1.477-1.476-3.438-2.288-5.525-2.288c-2.088,0-4.052,0.813-5.542,2.304l-0.11,0.112c-3.048,3.047-3.048,8.006,0,11.054  l34.775,34.761c1.477,1.476,3.438,2.288,5.525,2.288c2.089,0,4.052-0.814,5.527-2.29l0.125-0.125c3.048-3.047,3.048-8.006,0-11.054  l-0.468-0.467l16.345-16.351l11.538,11.533c1.467,1.466,3.417,2.273,5.49,2.273c2.075,0,4.025-0.808,5.49-2.274l0.126-0.126  c3.025-3.028,3.024-7.954-0.003-10.98l-6.083-6.081l99.244-99.283c8.349-8.352,8.347-21.939-0.005-30.289l-4.009-4.007  l29.957-29.957C208.158,6.583,208.158,3.417,206.205,1.464z M173.189,65.719l-51.872,51.893l-5.212-5.21l43.483-43.483  c1.953-1.953,1.953-5.119,0-7.071c-0.15-0.15-0.318-0.266-0.481-0.393c-0.127-0.164-0.245-0.333-0.396-0.484l-10.065-10.064  c-1.953-1.953-5.118-1.953-7.071,0c-1.952,1.953-1.952,5.118,0.001,7.071l7.407,7.406l-4.924,4.924L136.65,62.9  c-1.953-1.953-5.118-1.953-7.071,0c-1.952,1.953-1.952,5.118,0.001,7.071l7.407,7.406l-4.924,4.924l-7.407-7.407  c-1.951-1.952-5.119-1.952-7.07,0c-1.953,1.953-1.953,5.119,0,7.071l7.406,7.407l-4.924,4.924l-7.407-7.407  c-1.951-1.952-5.119-1.952-7.07,0c-1.953,1.953-1.953,5.119,0,7.071l7.406,7.406l-3.965,3.964l-18.47-18.463l51.872-51.893  c2.157-2.158,5.024-3.346,8.075-3.346c3.049,0,5.915,1.187,8.071,3.342l14.605,14.599C177.638,54.022,177.639,61.266,173.189,65.719  z" fill="#60dafb"/>
<g>
</g>
<g>
</g>
<g>
</g>
<g>
</g>
<g>
</g>
<g>
</g>
<g>
</g>
<g>
</g>
<g>
</g>
<g>
</g>
<g>
</g>
<g>
</g>
<g>
</g>
<g>
</g>
<g>
</g>
</svg>
